<svg width="55" height="54" xmlns="http://www.w3.org/2000/svg" xmlns:xlink="http://www.w3.org/1999/xlink" xml:space="preserve" overflow="hidden"><defs><linearGradient x1="7.77" y1="30.48" x2="46.23" y2="30.48" gradientUnits="userSpaceOnUse" spreadMethod="pad" id="fill0"><stop offset="0" stop-color="#005BA1"/><stop offset="0.07" stop-color="#0060A9"/><stop offset="0.36" stop-color="#0071C8"/><stop offset="0.52" stop-color="#0078D4"/><stop offset="0.64" stop-color="#0074CD"/><stop offset="0.82" stop-color="#006ABB"/><stop offset="1" stop-color="#005BA1"/></linearGradient><radialGradient cx="9.36" cy="10.57" r="7.07" gradientUnits="userSpaceOnUse" spreadMethod="pad" id="fill1" gradientTransform="scale(3 3)"><stop offset="0" stop-color="#F2F2F2"/><stop offset="0.58" stop-color="#EEEEEE"/><stop offset="1" stop-color="#E6E6E6"/></radialGradient></defs><g transform="translate(-350 -317)"><path d="M27 15.42C16.38 15.42 7.77 12.42 7.77 8.46L7.77 45.54C7.77 49.35 16.23 52.44 26.73 52.5L27 52.5C37.62 52.5 46.23 49.5 46.23 45.54L46.23 8.46C46.23 12.33 37.62 15.42 27 15.42Z" fill="url(#fill0)" transform="matrix(1.01852 0 0 1 350 317)"/><path d="M46.23 8.46C46.23 12.33 37.62 15.42 27 15.42 16.38 15.42 7.77 12.42 7.77 8.46 7.77 4.5 16.38 1.5 27 1.5 37.62 1.5 46.23 4.5 46.23 8.46" fill="#E8E8E8" transform="matrix(1.01852 0 0 1 350 317)"/><path d="M41.76 7.89C41.76 10.35 35.13 12.33 27 12.33 18.87 12.33 12.24 10.35 12.24 7.89 12.24 5.43 18.87 3.48 27 3.48 35.13 3.48 41.76 5.46 41.76 7.89" fill="#50E6FF" transform="matrix(1.01852 0 0 1 350 317)"/><path d="M27 9C23.0409 8.89887 19.0937 9.47727 15.33 10.71 19.0973 11.9198 23.0456 12.4679 27 12.33 30.9624 12.4461 34.9137 11.8569 38.67 10.59 34.8957 9.41427 30.9513 8.87688 27 9Z" fill="#198AB3" transform="matrix(1.01852 0 0 1 350 317)"/><path d="M38.7 34.2 38.7 24 36 24 36 36.39 43.38 36.39 43.38 34.2ZM17.28 29.19C16.7225 28.9658 16.2057 28.6516 15.75 28.26 15.5056 28.0016 15.3757 27.6554 15.39 27.3 15.3713 26.9417 15.5422 26.6 15.84 26.4 16.209 26.1447 16.6518 26.0182 17.1 26.04 18.1685 25.992 19.223 26.2978 20.1 26.91L20.1 24.33C19.1415 23.9734 18.1219 23.8102 17.1 23.85 15.923 23.7873 14.7626 24.1493 13.83 24.87 13.0054 25.5058 12.5366 26.4992 12.57 27.54 12.57 29.07 13.53 30.27 15.57 31.17 16.2325 31.4511 16.8574 31.8138 17.43 32.25 17.7139 32.4882 17.8785 32.8395 17.88 33.21 17.8801 33.5796 17.7013 33.9261 17.4 34.14 16.9917 34.3791 16.5225 34.4937 16.05 34.47 14.8433 34.4601 13.6814 34.0122 12.78 33.21L12.78 36C13.7707 36.5109 14.876 36.7587 15.99 36.72 17.2474 36.7947 18.4937 36.4461 19.53 35.73 20.2722 35.0271 20.6391 34.0152 20.52 33 20.5344 32.232 20.2677 31.485 19.77 30.9 19.0691 30.1617 18.2207 29.5791 17.28 29.19ZM33 33.96C33.681 32.8191 34.0245 31.5084 33.99 30.18 33.9222 29.0555 33.5826 27.9643 33 27 32.5317 26.0632 31.8024 25.2818 30.9 24.75 29.9856 24.2317 28.951 23.9627 27.9 23.97 26.767 23.9451 25.648 24.2248 24.66 24.78 23.7339 25.2968 22.9742 26.0669 22.47 27 21.9389 28.0607 21.6713 29.2339 21.69 30.42 21.6963 31.4619 21.9426 32.4885 22.41 33.42 22.8678 34.3467 23.5876 35.1186 24.48 35.64 25.3861 36.1926 26.4193 36.5025 27.48 36.54L30.06 39.54 33.69 39.54 30 36.24C31.2426 35.8674 32.3082 35.0574 33 33.96ZM30 33.21C29.4463 33.8976 28.6025 34.2861 27.72 34.26 26.8303 34.2888 25.9814 33.8865 25.44 33.18 24.8059 32.3136 24.4978 31.2513 24.57 30.18 24.5004 29.109 24.8082 28.0475 25.44 27.18 26.0119 26.475 26.8722 26.0669 27.78 26.07 28.6703 26.0316 29.5187 26.4502 30.03 27.18 30.621 28.0644 30.9057 29.1183 30.84 30.18 30.9447 31.2591 30.6453 32.3388 30 33.21Z" fill="url(#fill1)" transform="matrix(1.01852 0 0 1 350 317)"/></g></svg>