<svg width="43" height="42" xmlns="http://www.w3.org/2000/svg" xmlns:xlink="http://www.w3.org/1999/xlink" xml:space="preserve" overflow="hidden"><g transform="translate(-925 -225)"><path d="M39.375 30.3926C39.375 31.7051 39.0571 32.8536 38.4213 33.838 37.7856 34.8223 36.9512 35.6702 35.9193 36.3809 34.8869 37.0923 33.7109 37.6832 32.392 38.1549 31.0724 38.6266 29.7323 39.0028 28.3724 39.2829 27.0119 39.5636 25.6892 39.7584 24.4042 39.8673 23.1188 39.9768 21.9844 40.0312 21 40.0312 20.2752 40.0312 19.4581 40.0005 18.5493 39.939 17.6399 39.8774 16.6863 39.7718 15.6884 39.6211 14.69 39.4711 13.6748 39.2725 12.6431 39.0264 11.6106 38.7803 10.6089 38.4766 9.63861 38.1138 8.66775 37.7517 7.75832 37.3282 6.9111 36.8423 6.06322 36.3572 5.32179 35.7963 4.68602 35.1606 4.05024 34.5248 3.54782 33.8141 3.17874 33.0277 2.80954 32.2421 2.625 31.3635 2.625 30.3926L2.625 28.875C2.625 28.52 2.75441 28.2123 3.01468 27.9522 3.27416 27.6926 3.58181 27.5625 3.9375 27.5625L38.0625 27.5625C38.4175 27.5625 38.7252 27.6926 38.9853 27.9522 39.2449 28.2123 39.375 28.52 39.375 28.875L39.375 30.3926ZM36.75 30.1875 5.25 30.1875C5.25 30.9258 5.41721 31.5961 5.75243 32.1973 6.08698 32.7991 6.53809 33.3393 7.10601 33.8175 7.67314 34.2962 8.33648 34.7167 9.09523 35.0787 9.85399 35.4414 10.657 35.7554 11.5049 36.0221 12.3521 36.2887 13.2237 36.5111 14.1196 36.6886 15.0149 36.8667 15.8794 37.0065 16.7139 37.109 17.5477 37.2115 18.334 37.2871 19.0723 37.3346 19.8106 37.3825 20.4527 37.4062 21 37.4062 21.7242 37.4062 22.6201 37.3691 23.6866 37.2935 24.753 37.2186 25.8668 37.0781 27.0294 36.8731 28.1913 36.668 29.3531 36.395 30.5158 36.0528 31.6777 35.7112 32.7204 35.2703 33.6432 34.7301 34.566 34.1905 35.3145 33.5476 35.8887 32.8023 36.463 32.0576 36.75 31.1859 36.75 30.1875ZM34.125 21C34.125 21.5333 34.0186 22.0357 33.8071 22.5073 33.595 22.979 33.3078 23.3961 32.9457 23.7582 32.5829 24.121 32.1664 24.408 31.6948 24.6196 31.2232 24.8317 30.7208 24.9375 30.1875 24.9375L11.8125 24.9375C11.2792 24.9375 10.7768 24.8317 10.3052 24.6196 9.83351 24.4082 9.4164 24.121 9.05428 23.7582 8.69151 23.3961 8.40446 22.9789 8.19289 22.5073 7.98079 22.0357 7.875 21.5333 7.875 21L7.875 10.5C7.875 9.96673 7.98079 9.46431 8.19289 8.99273 8.40433 8.52101 8.69151 8.10442 9.05428 7.74178 9.4164 7.37966 9.83364 7.09262 10.3052 6.88039 10.7768 6.66894 11.2794 6.5625 11.8125 6.5625L19.6875 6.5625 19.6875 2.625C19.6875 2.26997 19.8169 1.96232 20.0772 1.70218 20.3367 1.44257 20.6443 1.3125 21 1.3125 21.355 1.3125 21.6627 1.44257 21.9228 1.70218 22.1824 1.96232 22.3125 2.26997 22.3125 2.625L22.3125 6.5625 30.1875 6.5625C30.7208 6.5625 31.2232 6.66894 31.6948 6.88039 32.1665 7.09249 32.5831 7.37966 32.9457 7.74178 33.3078 8.10456 33.5949 8.52114 33.8071 8.99273 34.0186 9.46431 34.125 9.96686 34.125 10.5L34.125 21ZM31.5 21 31.5 10.5C31.5 10.145 31.3699 9.83732 31.1103 9.57718 30.8502 9.31757 30.5425 9.1875 30.1875 9.1875L11.8125 9.1875C11.4568 9.1875 11.1492 9.31757 10.8897 9.57718 10.6294 9.83732 10.5 10.145 10.5 10.5L10.5 21C10.5 21.3557 10.6294 21.6633 10.8897 21.9228 11.1492 22.1831 11.4568 22.3125 11.8125 22.3125L30.1875 22.3125C30.5425 22.3125 30.8502 22.1831 31.1103 21.9228 31.3699 21.6633 31.5 21.3557 31.5 21ZM18.375 14.4375C18.375 14.7932 18.3032 15.1284 18.1596 15.4424 18.016 15.757 17.8244 16.0339 17.5854 16.2729 17.3457 16.5126 17.0657 16.7035 16.7446 16.8471 16.4229 16.9907 16.0916 17.0625 15.75 17.0625 15.3943 17.0625 15.0591 16.9907 14.7451 16.8471 14.4305 16.7035 14.1536 16.5126 13.9146 16.2729 13.6749 16.0339 13.484 15.757 13.3404 15.4424 13.1968 15.1284 13.125 14.7932 13.125 14.4375 13.125 14.0959 13.1968 13.7646 13.3404 13.4429 13.484 13.1218 13.6749 12.8418 13.9146 12.6021 14.1536 12.3631 14.4305 12.1715 14.7451 12.0279 15.0591 11.8843 15.3943 11.8125 15.75 11.8125 16.0916 11.8125 16.4229 11.8843 16.7446 12.0279 17.0657 12.1715 17.3457 12.3631 17.5854 12.6021 17.8244 12.8418 18.016 13.1218 18.1596 13.4429 18.3032 13.7646 18.375 14.0959 18.375 14.4375ZM28.875 14.4375C28.875 14.7932 28.8032 15.1284 28.6596 15.4424 28.516 15.757 28.3244 16.0339 28.0854 16.2729 27.8457 16.5126 27.5656 16.7035 27.2446 16.8471 26.9229 16.9907 26.5916 17.0625 26.25 17.0625 25.8943 17.0625 25.5591 16.9907 25.2451 16.8471 24.9305 16.7035 24.6536 16.5126 24.4146 16.2729 24.1749 16.0339 23.984 15.757 23.8404 15.4424 23.6968 15.1284 23.625 14.7932 23.625 14.4375 23.625 14.0959 23.6968 13.7646 23.8404 13.4429 23.984 13.1218 24.1749 12.8418 24.4146 12.6021 24.6536 12.3631 24.9305 12.1715 25.2451 12.0279 25.5591 11.8843 25.8943 11.8125 26.25 11.8125 26.5916 11.8125 26.9229 11.8843 27.2446 12.0279 27.5656 12.1715 27.8457 12.3631 28.0854 12.6021 28.3244 12.8418 28.516 13.1218 28.6596 13.4429 28.8032 13.7646 28.875 14.0959 28.875 14.4375Z" fill="#C03BC4" transform="matrix(1.02381 0 0 1 925 225)"/></g></svg>