<svg width="89" height="24" xmlns="http://www.w3.org/2000/svg" xmlns:xlink="http://www.w3.org/1999/xlink" xml:space="preserve" overflow="hidden"><g transform="translate(-979 -361)"><path d="M0 18.2077 0 0 2.70197 0 2.70197 7.83215 12.5659 7.83215 12.5659 0 15.2644 0 15.2644 18.2077 12.5659 18.2077 12.5659 10.1254 2.70197 10.1254 2.70197 18.2109 0 18.2109 0 18.2077ZM18.7926 14.7824C18.7926 12.5149 20.6383 11.1069 23.807 10.8792L28.0495 10.5777 28.0495 10.2249C28.0495 8.1594 26.6985 7.42814 24.8808 7.42814 22.7052 7.42814 21.463 8.31014 21.463 9.79511L19.2031 9.79511C19.2031 7.22609 21.5191 5.53906 24.9896 5.53906 28.46 5.53906 30.583 7.15232 30.583 10.475L30.583 18.2078 28.3793 18.2078 28.1021 16.2193C27.4143 17.6305 25.5686 18.5125 23.3894 18.5125 20.498 18.5125 18.7891 17.0275 18.7891 14.7856L18.7926 14.7824ZM28.0775 12.8933 28.0775 12.239 24.6316 12.4924C22.3437 12.6945 21.4068 13.4995 21.4068 14.7086 21.4068 16.0172 22.4525 16.6715 24.1333 16.6715 26.5862 16.6715 28.074 15.2122 28.074 12.8933L28.0775 12.8933ZM41.8766 7.95627 40.7186 7.95627C38.2657 7.95627 36.7498 9.31616 36.7498 11.6831L36.7498 18.2067 34.1602 18.2067 34.1602 5.91645 36.5849 5.91645 36.7498 7.77987C37.3008 6.49697 38.6517 5.64062 40.4975 5.64062 40.9642 5.64062 41.3502 5.69194 41.8766 5.79137L41.8766 7.95627ZM43.0625 5.89062 45.8171 5.89062 48.7647 12.767C49.2314 13.9248 49.6174 14.9576 49.8385 15.7145 50.0595 14.9095 50.4982 13.8511 50.9684 12.767L53.9721 5.89062 56.6741 5.89062 51.0526 18.2065 48.491 18.2065 43.0625 5.89062ZM57.25 12.0626C57.25 8.21072 59.9239 5.53906 63.8365 5.53906 67.7491 5.53906 70.1738 7.95734 70.1738 11.6072L70.1738 12.4892 59.759 12.5149C59.952 15.1096 61.4398 16.5432 64.0014 16.5432 66.0121 16.5432 67.335 15.7863 67.7772 14.3783L70.2019 14.3783C69.5422 17.0243 67.2824 18.5093 63.9488 18.5093 59.98 18.5093 57.2535 15.8889 57.2535 12.0626L57.25 12.0626ZM59.8116 10.9305 67.5806 10.9305C67.5806 8.89066 66.1209 7.53078 63.833 7.53078 61.5451 7.53078 60.1415 8.76558 59.8116 10.9305ZM84.0586 16.7506C84.0586 15.7692 84.9674 14.9609 86.0412 14.9609 87.115 14.9609 87.9993 15.766 87.9993 16.7506 87.9993 17.7352 87.0904 18.5146 86.0412 18.5146 84.992 18.5146 84.0586 17.7096 84.0586 16.7506ZM76.6629 13.2673 73.7539 5.89062 71.0273 5.89062 75.4137 16.372 75.6382 15.8139 76.6629 13.2673ZM81.6643 5.89062 84.3382 5.89062 76.9552 23.9989 74.2812 23.9989 81.6643 5.89062Z" fill="#1F2937" transform="matrix(1.01136 0 0 1 979 361)"/></g></svg>